<?xml version="1.0" encoding="utf-8"?>
<!-- Generator: Adobe Illustrator 19.0.0, SVG Export Plug-In . SVG Version: 6.00 Build 0)  -->
<svg version="1.1" id="Layer_1" xmlns="http://www.w3.org/2000/svg" xmlns:xlink="http://www.w3.org/1999/xlink" x="0px" y="0px"
	 viewBox="0 0 500 500" style="enable-background:new 0 0 500 500;" xml:space="preserve">
<style type="text/css">
	.st0{fill:#FFFFFF;}
	.st1{fill:#CFB87C;}
</style>
<g id="XMLID_1_">
	<polyline id="XMLID_3_" points="281.8,74 328.3,120.7 328.3,165.3 432.5,165.3 432.5,243.5 406.9,243.5 406.9,379.3 359.7,426 
		218.9,426 171.8,379.3 171.8,334.6 114.2,334.6 67.5,287.9 67.5,120.7 114.2,74 281.8,74 	"/>
	<polyline id="XMLID_4_" class="st0" points="119.6,321.7 184.7,321.7 184.7,374 224.2,413.1 354.4,413.1 394,374 394,230.6 
		419.6,230.6 419.6,178.2 341.1,178.2 341.1,360.8 237.1,360.8 237.1,321.7 276.4,321.7 315.5,282.6 315.5,230.6 263.1,230.6 
		263.1,269.4 237.1,269.4 237.1,178.2 158.7,178.2 158.7,230.6 184.7,230.6 184.7,269.4 132.6,269.4 132.6,138.8 263.1,138.8 
		263.1,178.2 315.5,178.2 315.5,126 276.4,86.9 119.6,86.9 80.4,126 80.4,282.6 119.6,321.7 	"/>
	<polyline id="XMLID_5_" class="st1" points="230.6,315.2 273.8,315.2 309,279.9 309,237.1 269.6,237.1 269.6,275.9 230.6,275.9 
		230.6,184.7 165.2,184.7 165.2,224.2 191.2,224.2 191.2,275.9 126.2,275.9 126.2,132.3 269.6,132.3 269.6,171.8 309,171.8 
		309,128.7 273.8,93.3 122.2,93.3 86.8,128.7 86.8,279.9 122.2,315.2 191.2,315.2 191.2,371.3 226.9,406.7 351.7,406.7 387.6,371.3 
		387.6,224.2 413.2,224.2 413.2,184.7 347.5,184.7 347.5,367.2 230.6,367.2 230.6,315.2 	"/>
</g>
</svg>
